<svg width="151" height="107" xmlns="http://www.w3.org/2000/svg"><g fill="#096AD0" fill-rule="nonzero"><path stroke="#1F2C3D" stroke-width=".5" d="M50.51 58.03L.5 29.16V48.8l50 28.87 50.01 28.87V86.9z"/><path stroke="#1F2C3D" stroke-width=".5" d="M100.5 29.16L50.51.29.5 29.16l50.01 28.87 50 28.87 49.99-28.86z"/><path d="M68.44 23.89c-3.8 2.19-3.83 5.75 0 8a15.13 15.13 0 0 0 13.74 0c3.8-2.19 3.82-5.76 0-7.95a15.11 15.11 0 0 0-13.74-.05z"/><path d="M65.57 20.42v7.51c0 1.43 1 2.86 2.82 3.95a15.21 15.21 0 0 0 13.75 0c1.91-1.11 2.86-2.56 2.86-4v-7.5c0 1.44-1 2.89-2.87 4a15.13 15.13 0 0 1-13.74 0c-1.87-1.1-2.81-2.53-2.82-3.96z" stroke="#1F2C3D" stroke-width=".5"/><path d="M68.44 16.41c-3.8 2.2-3.83 5.76 0 8a15.13 15.13 0 0 0 13.74 0c3.8-2.2 3.82-5.76 0-8a15.14 15.14 0 0 0-13.74 0z" stroke="#1F2C3D" stroke-width=".5"/><path d="M43.54 38.4c-3.8 2.2-3.83 5.76 0 8a15.19 15.19 0 0 0 13.74 0c3.8-2.2 3.82-5.76 0-8a15.14 15.14 0 0 0-13.74 0z"/><path d="M40.67 34.94v7.51c0 1.43 1 2.85 2.82 3.94 4.32 2.2 9.43 2.2 13.75 0 1.91-1.1 2.86-2.55 2.86-4v-7.51c0 1.45-1 2.9-2.87 4a15.13 15.13 0 0 1-13.74 0c-1.87-1.09-2.81-2.51-2.82-3.94z" stroke="#1F2C3D" stroke-width=".5"/><path d="M43.54 30.93c-3.8 2.19-3.83 5.76 0 8a15.13 15.13 0 0 0 13.74 0c3.8-2.19 3.82-5.76 0-8a15.11 15.11 0 0 0-13.74 0z" stroke="#1F2C3D" stroke-width=".5"/><path d="M43.53 9.37c-3.81 2.2-3.83 5.76-.05 8a15.19 15.19 0 0 0 13.74 0c3.8-2.2 3.82-5.76 0-8a15.14 15.14 0 0 0-13.69 0z"/><path d="M40.66 5.91v7.51c0 1.42.94 2.85 2.82 3.94a15.13 15.13 0 0 0 13.74 0c1.91-1.1 2.87-2.55 2.86-4V5.85c0 1.45-.95 2.9-2.86 4a15.13 15.13 0 0 1-13.74 0c-1.88-1.09-2.82-2.51-2.82-3.94z" stroke="#1F2C3D" stroke-width=".5"/><path d="M43.53 1.9c-3.81 2.19-3.83 5.76-.05 8a15.13 15.13 0 0 0 13.74 0c3.78-2.24 3.78-5.81.04-8a15.11 15.11 0 0 0-13.73 0z" stroke="#1F2C3D" stroke-width=".5"/><g><path d="M18.63 23.89c-3.81 2.19-3.83 5.75-.05 8a15.13 15.13 0 0 0 13.74 0c3.8-2.19 3.82-5.76 0-7.95a15.11 15.11 0 0 0-13.69-.05z"/><path d="M15.76 20.42v7.51c0 1.43.94 2.86 2.82 3.95a15.19 15.19 0 0 0 13.74 0c1.91-1.11 2.87-2.56 2.86-4v-7.5c0 1.44-1 2.89-2.86 4a15.13 15.13 0 0 1-13.74 0c-1.88-1.1-2.82-2.53-2.82-3.96z" stroke="#1F2C3D" stroke-width=".5"/><path d="M18.63 16.41c-3.81 2.2-3.83 5.76-.05 8a15.13 15.13 0 0 0 13.74 0c3.8-2.2 3.82-5.76 0-8a15.14 15.14 0 0 0-13.69 0z" stroke="#1F2C3D" stroke-width=".5"/></g><path stroke="#1F2C3D" stroke-width=".5" d="M100.51 86.9v19.64l49.99-28.86V58.04z"/><g><path d="M118.45 52.76c-3.81 2.19-3.83 5.76 0 8a15.13 15.13 0 0 0 13.74 0c3.8-2.19 3.82-5.76 0-8a15.11 15.11 0 0 0-13.74 0z"/><path d="M115.58 49.29v7.51c0 1.43.94 2.86 2.82 4a15.13 15.13 0 0 0 13.74 0c1.91-1.1 2.87-2.55 2.86-4v-7.51c0 1.45-.95 2.9-2.86 4a15.13 15.13 0 0 1-13.74 0c-1.88-1.14-2.82-2.57-2.82-4z" stroke="#1F2C3D" stroke-width=".5"/><path d="M118.45 45.28c-3.81 2.2-3.83 5.76 0 8a15.13 15.13 0 0 0 13.74 0c3.8-2.19 3.82-5.76 0-8a15.17 15.17 0 0 0-13.74 0z" stroke="#1F2C3D" stroke-width=".5"/></g><g><path d="M93.55 67.27c-3.81 2.2-3.83 5.76 0 8a15.13 15.13 0 0 0 13.74 0c3.8-2.19 3.82-5.76 0-8a15.17 15.17 0 0 0-13.74 0z"/><path d="M90.68 63.81v7.51c0 1.43.94 2.85 2.82 4a15.19 15.19 0 0 0 13.74 0c1.91-1.11 2.87-2.56 2.86-4v-7.51c0 1.45-.95 2.9-2.86 4a15.19 15.19 0 0 1-13.74 0c-1.88-1.14-2.82-2.57-2.82-4z" stroke="#1F2C3D" stroke-width=".5"/><path d="M93.55 59.8c-3.81 2.2-3.83 5.76 0 8a15.19 15.19 0 0 0 13.74 0c3.8-2.2 3.82-5.76 0-8a15.14 15.14 0 0 0-13.74 0z" stroke="#1F2C3D" stroke-width=".5"/></g><g><path d="M93.53 38.24c-3.8 2.2-3.83 5.76 0 8a15.13 15.13 0 0 0 13.74 0c3.8-2.19 3.82-5.76 0-8a15.17 15.17 0 0 0-13.74 0z"/><path d="M90.66 34.78v7.51c0 1.43.95 2.85 2.82 4a15.19 15.19 0 0 0 13.74 0c1.92-1.11 2.87-2.56 2.87-4v-7.51c0 1.45-1 2.9-2.86 4a15.19 15.19 0 0 1-13.74 0c-1.89-1.15-2.82-2.57-2.83-4z" stroke="#1F2C3D" stroke-width=".5"/><path d="M93.53 30.77c-3.8 2.2-3.83 5.76 0 8a15.19 15.19 0 0 0 13.74 0c3.8-2.2 3.82-5.76 0-8a15.14 15.14 0 0 0-13.74 0z" stroke="#1F2C3D" stroke-width=".5"/></g><g><path d="M68.63 52.76c-3.8 2.19-3.83 5.76 0 8a15.13 15.13 0 0 0 13.74 0c3.8-2.19 3.82-5.76 0-8a15.11 15.11 0 0 0-13.74 0z"/><path d="M65.76 49.29v7.51c0 1.43 1 2.86 2.82 4a15.13 15.13 0 0 0 13.74 0c1.92-1.1 2.87-2.55 2.87-4v-7.51c0 1.45-1 2.9-2.87 4a15.13 15.13 0 0 1-13.74 0c-1.88-1.14-2.81-2.57-2.82-4z" stroke="#1F2C3D" stroke-width=".5"/><path d="M68.63 45.28c-3.8 2.2-3.83 5.76 0 8a15.13 15.13 0 0 0 13.74 0c3.8-2.19 3.82-5.76 0-8a15.17 15.17 0 0 0-13.74 0z" stroke="#1F2C3D" stroke-width=".5"/></g></g></svg>