<svg width="101" height="78" xmlns="http://www.w3.org/2000/svg"><g fill="#00ff00" fill-rule="nonzero"><path stroke="#1F2C3D" stroke-width=".35" d="M.35 29.09l50 28.87 50-28.87-50-28.88z"/><path stroke="#1F2C3D" stroke-width=".35" d="M50.35 57.96v19.63l50-28.86V29.09zM.35 29.09v19.63l50 28.87V57.96z"/><path d="M68.29 23.81c-3.8 2.2-3.83 5.76-.05 8a15.19 15.19 0 0 0 13.74 0c3.8-2.2 3.82-5.76 0-8a15.14 15.14 0 0 0-13.69 0z"/><path d="M65.42 20.35v7.51c0 1.42 1 2.85 2.82 3.94a15.15 15.15 0 0 0 13.76 0c1.91-1.1 2.86-2.55 2.86-4v-7.51c0 1.45-.95 2.9-2.87 4a15.13 15.13 0 0 1-13.74 0c-1.88-1.09-2.82-2.52-2.83-3.94z" stroke="#1F2C3D" stroke-width=".35"/><path d="M68.29 16.34c-3.8 2.19-3.83 5.76-.05 8a15.13 15.13 0 0 0 13.74 0c3.8-2.19 3.82-5.76 0-7.95a15.11 15.11 0 0 0-13.69-.05z" stroke="#1F2C3D" stroke-width=".35"/><path d="M43.39 38.33c-3.8 2.19-3.83 5.75 0 8a15.13 15.13 0 0 0 13.74 0c3.8-2.19 3.82-5.76 0-8a15.11 15.11 0 0 0-13.74 0z"/><path d="M40.52 34.86v7.51c0 1.43 1 2.86 2.82 4 4.32 2.2 9.43 2.2 13.75 0C59 45.21 60 43.76 60 42.32v-7.51c0 1.44-1 2.9-2.87 4a15.13 15.13 0 0 1-13.74 0c-1.93-1.09-2.86-2.52-2.87-3.95z" stroke="#1F2C3D" stroke-width=".35"/><path d="M43.39 30.85c-3.8 2.2-3.83 5.76 0 8a15.13 15.13 0 0 0 13.74 0c3.8-2.2 3.82-5.76 0-8a15.14 15.14 0 0 0-13.74 0z" stroke="#1F2C3D" stroke-width=".35"/><g><path d="M43.38 9.29c-3.81 2.2-3.84 5.76-.06 8 4.32 2.2 9.43 2.2 13.75 0 3.8-2.19 3.82-5.76 0-8a15.17 15.17 0 0 0-13.69 0z"/><path d="M40.51 5.83v7.51c0 1.43.94 2.86 2.82 3.95a15.19 15.19 0 0 0 13.74 0C59 16.18 60 14.73 60 13.28V5.77c0 1.45-1 2.9-2.86 4a15.21 15.21 0 0 1-13.75 0c-1.94-1.08-2.88-2.51-2.88-3.94z" stroke="#1F2C3D" stroke-width=".35"/><path d="M43.38 1.82c-3.81 2.2-3.84 5.76-.06 8a15.21 15.21 0 0 0 13.75 0c3.8-2.2 3.82-5.76 0-8a15.14 15.14 0 0 0-13.69 0z" stroke="#1F2C3D" stroke-width=".35"/></g><g><path d="M18.47 23.81c-3.8 2.2-3.83 5.76 0 8a15.21 15.21 0 0 0 13.75 0c3.8-2.2 3.82-5.76 0-8a15.16 15.16 0 0 0-13.75 0z"/><path d="M15.6 20.35v7.51c0 1.42.94 2.85 2.82 3.94a15.13 15.13 0 0 0 13.74 0c1.91-1.1 2.86-2.55 2.86-4v-7.51c0 1.45-1 2.9-2.86 4a15.15 15.15 0 0 1-13.75 0c-1.86-1.09-2.8-2.52-2.81-3.94z" stroke="#1F2C3D" stroke-width=".35"/><path d="M18.47 16.34c-3.8 2.19-3.83 5.76 0 8 4.32 2.2 9.43 2.2 13.75 0 3.8-2.19 3.82-5.76 0-7.95a15.13 15.13 0 0 0-13.75-.05z" stroke="#1F2C3D" stroke-width=".35"/></g></g></svg>
