<svg width="151" height="108" xmlns="http://www.w3.org/2000/svg"><g fill="#00ff00" fill-rule="nonzero"><path stroke="#1F2C3D" stroke-width=".5" d="M100.34 58.95l50.01-28.87v19.64l-50.01 28.87-50 28.87V87.83z"/><path stroke="#1F2C3D" stroke-width=".5" d="M50.34 30.09l50-28.88 50.01 28.87-50.01 28.87-50 28.88L.35 58.96z"/><path d="M82.4 24.81c3.81 2.2 3.84 5.76 0 8a15.19 15.19 0 0 1-13.74 0c-3.8-2.2-3.82-5.76 0-8a15.11 15.11 0 0 1 13.74 0z"/><path d="M85.27 21.34v7.51c0 1.43-.94 2.86-2.82 3.95a15.13 15.13 0 0 1-13.74 0c-1.91-1.1-2.87-2.55-2.86-4v-7.51c0 1.45 1 2.9 2.86 4a15.13 15.13 0 0 0 13.74 0c1.88-1.09 2.82-2.52 2.82-3.95z" stroke="#1F2C3D" stroke-width=".5"/><path d="M82.4 17.33c3.81 2.2 3.84 5.76 0 8a15.13 15.13 0 0 1-13.74 0c-3.8-2.19-3.82-5.76 0-7.95a15.14 15.14 0 0 1 13.74-.05z" stroke="#1F2C3D" stroke-width=".5"/><path d="M107.3 39.32c3.81 2.2 3.83 5.76 0 8a15.13 15.13 0 0 1-13.74 0c-3.8-2.19-3.82-5.76 0-8a15.17 15.17 0 0 1 13.74 0z"/><path d="M110.17 35.86v7.51c0 1.43-.94 2.86-2.82 4a15.19 15.19 0 0 1-13.74 0c-1.91-1.11-2.87-2.56-2.86-4v-7.51c0 1.45 1 2.9 2.86 4a15.19 15.19 0 0 0 13.74 0c1.88-1.14 2.82-2.57 2.82-4z" stroke="#1F2C3D" stroke-width=".5"/><path d="M107.3 31.85c3.81 2.2 3.83 5.76 0 8a15.19 15.19 0 0 1-13.74 0c-3.8-2.2-3.82-5.76 0-8a15.14 15.14 0 0 1 13.74 0z" stroke="#1F2C3D" stroke-width=".5"/><path d="M107.32 10.29c3.81 2.2 3.83 5.76.05 8a15.13 15.13 0 0 1-13.74 0c-3.8-2.19-3.82-5.76 0-8a15.17 15.17 0 0 1 13.69 0z"/><path d="M110.19 6.83v7.51c0 1.43-.94 2.86-2.82 3.95a15.19 15.19 0 0 1-13.74 0c-1.91-1.11-2.87-2.56-2.87-4V6.78c0 1.45 1 2.9 2.86 4a15.19 15.19 0 0 0 13.74 0c1.89-1.09 2.83-2.52 2.83-3.95z" stroke="#1F2C3D" stroke-width=".5"/><path d="M107.32 2.82c3.81 2.2 3.83 5.76.05 8a15.19 15.19 0 0 1-13.74 0c-3.8-2.2-3.82-5.76 0-8a15.14 15.14 0 0 1 13.69 0z" stroke="#1F2C3D" stroke-width=".5"/><g><path d="M132.22 24.81c3.8 2.2 3.83 5.76.05 8a15.19 15.19 0 0 1-13.74 0c-3.8-2.2-3.82-5.76 0-8a15.11 15.11 0 0 1 13.69 0z"/><path d="M135.09 21.34v7.51c0 1.43-.94 2.86-2.82 3.95a15.13 15.13 0 0 1-13.74 0c-1.91-1.1-2.87-2.55-2.87-4v-7.51c0 1.45 1 2.9 2.86 4a15.13 15.13 0 0 0 13.74 0c1.89-1.09 2.83-2.52 2.83-3.95z" stroke="#1F2C3D" stroke-width=".5"/><path d="M132.22 17.33c3.8 2.2 3.83 5.76.05 8a15.13 15.13 0 0 1-13.74 0c-3.8-2.19-3.82-5.76 0-7.95a15.14 15.14 0 0 1 13.69-.05z" stroke="#1F2C3D" stroke-width=".5"/></g><path stroke="#1F2C3D" stroke-width=".5" d="M50.34 87.83v19.63L.35 78.6V58.96z"/><g><path d="M32.4 53.68c3.8 2.2 3.83 5.76.05 8a15.19 15.19 0 0 1-13.74 0c-3.8-2.2-3.82-5.76 0-8a15.14 15.14 0 0 1 13.69 0z"/><path d="M35.27 50.22v7.51c0 1.43-.94 2.85-2.82 3.94a15.13 15.13 0 0 1-13.74 0c-1.91-1.1-2.87-2.55-2.87-4v-7.51c0 1.45 1 2.9 2.86 4a15.13 15.13 0 0 0 13.74 0c1.89-1.09 2.83-2.51 2.83-3.94z" stroke="#1F2C3D" stroke-width=".5"/><path d="M32.4 46.21c3.8 2.19 3.83 5.76.05 7.95a15.13 15.13 0 0 1-13.74 0c-3.8-2.19-3.82-5.76 0-7.95a15.11 15.11 0 0 1 13.69 0z" stroke="#1F2C3D" stroke-width=".5"/></g><g><path d="M57.3 68.2c3.8 2.19 3.83 5.76.05 8a15.13 15.13 0 0 1-13.74 0c-3.8-2.19-3.82-5.76 0-8a15.11 15.11 0 0 1 13.69 0z"/><path d="M60.17 64.73v7.51c0 1.43-.94 2.86-2.82 4a15.13 15.13 0 0 1-13.74 0c-1.92-1.1-2.87-2.56-2.87-4v-7.51c0 1.45 1 2.9 2.86 4a15.13 15.13 0 0 0 13.74 0c1.89-1.14 2.83-2.57 2.83-4z" stroke="#1F2C3D" stroke-width=".5"/><path d="M57.3 60.72c3.8 2.2 3.83 5.76.05 8a15.13 15.13 0 0 1-13.74 0c-3.8-2.19-3.82-5.76 0-8a15.17 15.17 0 0 1 13.69 0z" stroke="#1F2C3D" stroke-width=".5"/></g><g><path d="M57.32 39.17c3.8 2.19 3.83 5.76 0 7.95a15.15 15.15 0 0 1-13.75 0c-3.8-2.19-3.82-5.76 0-7.95a15.13 15.13 0 0 1 13.75 0z"/><path d="M60.19 35.7v7.51c0 1.43-.94 2.86-2.82 3.95a15.13 15.13 0 0 1-13.74 0c-1.91-1.1-2.86-2.56-2.86-4v-7.51c0 1.44 1 2.9 2.86 4 4.32 2.2 9.43 2.2 13.75 0 1.86-1.09 2.8-2.52 2.81-3.95z" stroke="#1F2C3D" stroke-width=".5"/><path d="M57.32 31.69c3.8 2.2 3.83 5.76 0 8a15.15 15.15 0 0 1-13.75 0c-3.8-2.19-3.82-5.76 0-8a15.19 15.19 0 0 1 13.75 0z" stroke="#1F2C3D" stroke-width=".5"/></g><g><path d="M82.21 53.68c3.81 2.2 3.84 5.76.06 8a15.21 15.21 0 0 1-13.75 0c-3.8-2.2-3.82-5.76 0-8a15.14 15.14 0 0 1 13.69 0z"/><path d="M85.09 50.22v7.51c0 1.43-.94 2.85-2.82 3.94a15.13 15.13 0 0 1-13.74 0c-1.91-1.1-2.86-2.55-2.86-4v-7.51c0 1.45 1 2.9 2.86 4 4.32 2.2 9.43 2.2 13.75 0 1.86-1.09 2.8-2.51 2.81-3.94z" stroke="#1F2C3D" stroke-width=".5"/><path d="M82.21 46.21c3.81 2.19 3.84 5.76.06 7.95a15.15 15.15 0 0 1-13.75 0c-3.8-2.19-3.82-5.76 0-7.95a15.11 15.11 0 0 1 13.69 0z" stroke="#1F2C3D" stroke-width=".5"/></g></g></svg>
