<svg width="151" height="107" xmlns="http://www.w3.org/2000/svg"><g fill="#FFF" fill-rule="nonzero"><path stroke="#1F2C3D" stroke-width=".5" d="M100.5 58.03l50-28.87V48.8l-50 28.87-50.01 28.87V86.9z"/><path stroke="#1F2C3D" stroke-width=".5" d="M50.5 29.16l50-28.87 50 28.87-50 28.87L50.49 86.9.5 58.04z"/><path d="M82.56 23.89c3.8 2.19 3.83 5.75 0 8a15.13 15.13 0 0 1-13.74 0c-3.8-2.19-3.82-5.76 0-7.95a15.11 15.11 0 0 1 13.74-.05z"/><path d="M85.43 20.42v7.51c0 1.43-1 2.86-2.82 3.95a15.21 15.21 0 0 1-13.75 0c-1.91-1.11-2.86-2.56-2.86-4v-7.5c0 1.44 1 2.89 2.87 4a15.13 15.13 0 0 0 13.74 0c1.87-1.1 2.81-2.53 2.82-3.96z" stroke="#1F2C3D" stroke-width=".5"/><path d="M82.56 16.41c3.8 2.2 3.83 5.76 0 8a15.13 15.13 0 0 1-13.74 0c-3.8-2.2-3.82-5.76 0-8a15.14 15.14 0 0 1 13.74 0z" stroke="#1F2C3D" stroke-width=".5"/><path d="M107.46 38.4c3.8 2.2 3.83 5.76.05 8a15.19 15.19 0 0 1-13.74 0c-3.8-2.2-3.82-5.76 0-8a15.14 15.14 0 0 1 13.69 0z"/><path d="M110.33 34.94v7.51c0 1.43-1 2.85-2.82 3.94a15.15 15.15 0 0 1-13.75 0c-1.91-1.1-2.86-2.55-2.86-4v-7.51c0 1.45.95 2.9 2.87 4a15.13 15.13 0 0 0 13.74 0c1.87-1.09 2.81-2.51 2.82-3.94z" stroke="#1F2C3D" stroke-width=".5"/><path d="M107.46 30.93c3.8 2.19 3.83 5.76.05 8a15.13 15.13 0 0 1-13.74 0c-3.8-2.19-3.82-5.76 0-8a15.11 15.11 0 0 1 13.69 0z" stroke="#1F2C3D" stroke-width=".5"/><path d="M107.47 9.37c3.81 2.2 3.83 5.76 0 8a15.19 15.19 0 0 1-13.74 0c-3.8-2.2-3.82-5.76 0-8a15.14 15.14 0 0 1 13.74 0z"/><path d="M110.34 5.91v7.51c0 1.42-.94 2.85-2.82 3.94a15.13 15.13 0 0 1-13.74 0c-1.91-1.1-2.87-2.55-2.86-4V5.85c0 1.45 1 2.9 2.86 4a15.13 15.13 0 0 0 13.74 0c1.88-1.09 2.82-2.51 2.82-3.94z" stroke="#1F2C3D" stroke-width=".5"/><path d="M107.47 1.9c3.81 2.19 3.83 5.76 0 8a15.13 15.13 0 0 1-13.74 0c-3.73-2.24-3.73-5.81.01-8a15.11 15.11 0 0 1 13.73 0z" stroke="#1F2C3D" stroke-width=".5"/><g><path d="M132.37 23.89c3.81 2.19 3.83 5.75 0 8a15.13 15.13 0 0 1-13.74 0c-3.8-2.19-3.82-5.76 0-7.95a15.11 15.11 0 0 1 13.74-.05z"/><path d="M135.24 20.42v7.51c0 1.43-.94 2.86-2.82 3.95a15.19 15.19 0 0 1-13.74 0c-1.91-1.11-2.87-2.56-2.86-4v-7.5c0 1.44 1 2.89 2.86 4a15.13 15.13 0 0 0 13.74 0c1.88-1.1 2.82-2.53 2.82-3.96z" stroke="#1F2C3D" stroke-width=".5"/><path d="M132.37 16.41c3.81 2.2 3.83 5.76 0 8a15.13 15.13 0 0 1-13.74 0c-3.8-2.2-3.82-5.76 0-8a15.14 15.14 0 0 1 13.74 0z" stroke="#1F2C3D" stroke-width=".5"/></g><path stroke="#1F2C3D" stroke-width=".5" d="M50.49 86.9v19.64L.5 77.68V58.04z"/><g><path d="M32.55 52.76c3.81 2.19 3.83 5.76.05 8a15.13 15.13 0 0 1-13.74 0c-3.8-2.19-3.82-5.76 0-8a15.11 15.11 0 0 1 13.69 0z"/><path d="M35.42 49.29v7.51c0 1.43-.94 2.86-2.82 4a15.13 15.13 0 0 1-13.74 0c-1.91-1.1-2.87-2.55-2.86-4v-7.51c0 1.45.95 2.9 2.86 4a15.13 15.13 0 0 0 13.74 0c1.88-1.14 2.82-2.57 2.82-4z" stroke="#1F2C3D" stroke-width=".5"/><path d="M32.55 45.28c3.81 2.2 3.83 5.76.05 8a15.13 15.13 0 0 1-13.74 0c-3.8-2.19-3.82-5.76 0-8a15.17 15.17 0 0 1 13.69 0z" stroke="#1F2C3D" stroke-width=".5"/></g><g><path d="M57.45 67.27c3.81 2.2 3.83 5.76 0 8a15.13 15.13 0 0 1-13.74 0c-3.8-2.19-3.82-5.76 0-8a15.17 15.17 0 0 1 13.74 0z"/><path d="M60.32 63.81v7.51c0 1.43-.94 2.85-2.82 4a15.19 15.19 0 0 1-13.74 0c-1.91-1.11-2.87-2.56-2.86-4v-7.51c0 1.45 1 2.9 2.86 4a15.19 15.19 0 0 0 13.74 0c1.88-1.14 2.82-2.57 2.82-4z" stroke="#1F2C3D" stroke-width=".5"/><path d="M57.45 59.8c3.81 2.2 3.83 5.76 0 8a15.19 15.19 0 0 1-13.74 0c-3.8-2.2-3.82-5.76 0-8a15.14 15.14 0 0 1 13.74 0z" stroke="#1F2C3D" stroke-width=".5"/></g><g><path d="M57.47 38.24c3.8 2.2 3.83 5.76.05 8a15.13 15.13 0 0 1-13.74 0c-3.8-2.19-3.82-5.76 0-8a15.17 15.17 0 0 1 13.69 0z"/><path d="M60.34 34.78v7.51c0 1.43-1 2.85-2.82 4a15.19 15.19 0 0 1-13.74 0c-1.92-1.11-2.87-2.56-2.87-4v-7.51c0 1.45 1 2.9 2.87 4a15.19 15.19 0 0 0 13.74 0c1.88-1.15 2.81-2.57 2.82-4z" stroke="#1F2C3D" stroke-width=".5"/><path d="M57.47 30.77c3.8 2.2 3.83 5.76.05 8a15.19 15.19 0 0 1-13.74 0c-3.8-2.2-3.82-5.76 0-8a15.14 15.14 0 0 1 13.69 0z" stroke="#1F2C3D" stroke-width=".5"/></g><g><path d="M82.37 52.76c3.8 2.19 3.83 5.76 0 8a15.13 15.13 0 0 1-13.74 0c-3.8-2.19-3.82-5.76 0-8a15.11 15.11 0 0 1 13.74 0z"/><path d="M85.24 49.29v7.51c0 1.43-1 2.86-2.82 4a15.13 15.13 0 0 1-13.74 0c-1.92-1.1-2.87-2.55-2.87-4v-7.51c0 1.45 1 2.9 2.87 4a15.13 15.13 0 0 0 13.74 0c1.88-1.14 2.81-2.57 2.82-4z" stroke="#1F2C3D" stroke-width=".5"/><path d="M82.37 45.28c3.8 2.2 3.83 5.76 0 8a15.13 15.13 0 0 1-13.74 0c-3.8-2.19-3.82-5.76 0-8a15.17 15.17 0 0 1 13.74 0z" stroke="#1F2C3D" stroke-width=".5"/></g></g></svg>